<?xml version="1.0"?>
<svg xmlns="http://www.w3.org/2000/svg" xmlns:xlink="http://www.w3.org/1999/xlink" xmlns:svgjs="http://svgjs.com/svgjs" version="1.1" width="512" height="512" x="0" y="0" viewBox="0 0 512.001 512.001" style="enable-background:new 0 0 512 512" xml:space="preserve"><g transform="matrix(-1.8369701987210297e-16,-1,1,-1.8369701987210297e-16,0.0000152587890625,512.0009918212892)">
<circle xmlns="http://www.w3.org/2000/svg" style="" cx="255.996" cy="255.995" r="255.995" fill="#fc4747" data-original="#fc4747"/>
<path xmlns="http://www.w3.org/2000/svg" style="" d="M512,256.001c0,141.382-114.617,256-256,256c-92.083,0-172.812-48.62-217.911-121.597  c41.97,30.1,93.431,47.827,149.021,47.827c141.393,0,256-114.618,256-256c0-49.289-13.929-95.336-38.079-134.392  C469.804,94.286,512,170.218,512,256.001z" fill="#e03636" data-original="#e03636"/>
<circle xmlns="http://www.w3.org/2000/svg" style="" cx="255.996" cy="255.995" r="197.346" fill="#efefef" data-original="#efefef"/>
<path xmlns="http://www.w3.org/2000/svg" style="" d="M453.344,256.002c0,108.986-88.356,197.343-197.343,197.343  c-75.324,0-140.796-42.207-174.047-104.261c33.106,25.139,74.408,40.055,119.188,40.055c108.987,0,197.343-88.356,197.343-197.343  c0-33.662-8.431-65.359-23.296-93.092C422.677,134.745,453.344,191.786,453.344,256.002z" fill="#e0e0e0" data-original="#e0e0e0"/>
<path xmlns="http://www.w3.org/2000/svg" style="" d="M387.953,248.627l-104.146-72.667c-5.96-4.158-14.135,0.106-14.135,7.373v23.278  c0,2.843-2.305,5.147-5.147,5.147H135.187c-8.275,0-14.984,6.708-14.984,14.984v43.271c0,8.275,6.709,14.984,14.984,14.984h129.338  c2.843,0,5.147,2.305,5.147,5.147v38.522c0,7.267,8.175,11.531,14.135,7.373l104.146-72.667  C393.081,259.795,393.081,252.205,387.953,248.627z" fill="#3f414c" data-original="#3f414c"/>
<path xmlns="http://www.w3.org/2000/svg" style="" d="M387.954,263.371l-104.148,72.668c-5.961,4.159-14.134-0.103-14.134-7.371v-43.669H135.186  c-8.272,0-14.979-6.706-14.979-14.979v-43.277c0-8.278,6.711-14.989,14.989-14.989h4.046v19.138c0,8.278,6.711,14.989,14.989,14.989  h124.192c5.686,0,10.295,4.609,10.295,10.295v33.374c0,7.268,8.174,11.53,14.134,7.371l77.156-53.84l7.947,5.549  C393.081,252.202,393.081,259.799,387.954,263.371z" fill="#232323" data-original="#232323"/>
<g xmlns="http://www.w3.org/2000/svg">
</g>
<g xmlns="http://www.w3.org/2000/svg">
</g>
<g xmlns="http://www.w3.org/2000/svg">
</g>
<g xmlns="http://www.w3.org/2000/svg">
</g>
<g xmlns="http://www.w3.org/2000/svg">
</g>
<g xmlns="http://www.w3.org/2000/svg">
</g>
<g xmlns="http://www.w3.org/2000/svg">
</g>
<g xmlns="http://www.w3.org/2000/svg">
</g>
<g xmlns="http://www.w3.org/2000/svg">
</g>
<g xmlns="http://www.w3.org/2000/svg">
</g>
<g xmlns="http://www.w3.org/2000/svg">
</g>
<g xmlns="http://www.w3.org/2000/svg">
</g>
<g xmlns="http://www.w3.org/2000/svg">
</g>
<g xmlns="http://www.w3.org/2000/svg">
</g>
<g xmlns="http://www.w3.org/2000/svg">
</g>
</g></svg>
